<svg xmlns="http://www.w3.org/2000/svg" width="256" height="256" viewBox="0 0 100 100"><rect width="100" height="100" rx="20" fill="#f8f8ff"></rect><path d="M13.34 60.58L13.34 60.58Q11.47 59.51 10.47 57.58Q9.47 55.64 9.34 53.89L9.34 53.89Q9.53 52.39 10.13 51.55Q10.72 50.70 11.53 50.17Q12.34 49.64 13.22 49.36Q14.09 49.08 14.91 48.89L14.91 48.89L15.84 49.20Q16.16 49.51 16.50 49.76Q16.84 50.01 17.16 50.26L17.16 50.26Q17.78 50.01 17.94 49.51Q18.09 49.01 18.28 48.51L18.28 48.51Q18.47 47.83 18.72 47.14Q18.97 46.45 19.34 45.76L19.34 45.76Q19.28 45.20 19.41 44.76Q19.53 44.33 19.66 44.01L19.66 44.01Q19.28 43.70 19.13 43.67Q18.97 43.64 18.59 43.51L18.59 43.51Q18.41 43.51 18.22 43.48Q18.03 43.45 17.78 43.39L17.78 43.39Q16.84 42.70 16.56 42.23Q16.28 41.76 15.97 41.26L15.97 41.26Q15.66 40.76 15.41 40.39Q15.16 40.01 14.84 39.70L14.84 39.70L14.09 39.20L14.47 38.45Q14.59 38.33 14.59 38.11Q14.59 37.89 14.34 37.45L14.34 37.45Q14.16 36.64 14.28 36.26L14.28 36.26L14.41 35.51Q15.03 34.70 15.09 34.58L15.09 34.58L15.72 33.95Q17.16 33.58 18.66 33.11Q20.16 32.64 21.59 32.14L21.59 32.14Q23.03 31.64 24.53 31.14Q26.03 30.64 27.53 30.26L27.53 30.26Q28.03 29.83 28.63 29.73Q29.22 29.64 29.72 29.58L29.72 29.58Q30.16 29.58 30.53 29.51Q30.91 29.45 31.09 29.20L31.09 29.20Q32.16 28.83 33.16 28.58L33.16 28.58Q35.03 28.08 38.09 27.39Q41.16 26.70 44.97 26.39L44.97 26.39L46.28 26.33Q46.66 26.39 47.03 26.36Q47.41 26.33 47.78 26.33L47.78 26.33Q51.03 26.33 52.09 28.33L52.09 28.33Q52.72 28.64 53.22 29.11Q53.72 29.58 54.16 30.01L54.16 30.01Q54.47 30.33 54.72 30.55Q54.97 30.76 55.16 30.89L55.16 30.89L55.66 31.39Q56.34 32.89 55.91 34.33L55.91 34.33Q55.53 35.08 55.09 35.20Q54.66 35.33 54.22 35.45L54.22 35.45L53.41 35.89Q52.59 35.83 52.19 35.83Q51.78 35.83 51.28 35.83L51.28 35.83Q49.41 35.83 46.94 36.05Q44.47 36.26 41.91 36.67Q39.34 37.08 36.91 37.67Q34.47 38.26 32.66 38.95L32.66 38.95Q32.16 39.33 31.34 39.64L31.34 39.64Q31.16 39.70 30.78 39.95L30.78 39.95Q30.84 40.45 30.78 40.92Q30.72 41.39 30.59 41.83L30.59 41.83Q30.53 42.14 30.50 42.48Q30.47 42.83 30.41 43.20L30.41 43.20Q29.09 44.76 29.16 46.89L29.16 46.89L28.84 47.51Q28.59 47.76 28.44 48.23Q28.28 48.70 28.41 49.20L28.41 49.20L28.66 49.95Q29.91 49.83 31.13 49.67Q32.34 49.51 33.72 49.33L33.72 49.33Q35.47 49.01 37.25 48.80Q39.03 48.58 40.97 48.58L40.97 48.58L43.41 48.58L42.84 49.14L43.53 49.20L43.16 50.20Q43.59 50.39 43.81 50.48Q44.03 50.58 44.22 50.70L44.22 50.70L44.66 51.33Q44.97 51.51 45.22 51.92Q45.47 52.33 45.53 53.01L45.53 53.01L45.34 53.64L42.41 57.39L42.03 57.89L41.41 57.70Q40.22 57.64 39.16 57.95L39.16 57.95Q38.66 58.08 38.09 58.23Q37.53 58.39 36.97 58.39L36.97 58.39Q35.47 58.64 34.47 58.80Q33.47 58.95 32.47 59.08L32.47 59.08Q31.09 59.33 29.81 59.55Q28.53 59.76 27.41 60.20L27.41 60.20Q26.72 60.26 26.59 60.23Q26.47 60.20 26.34 60.20L26.34 60.20Q25.72 60.20 25.09 60.39Q24.47 60.58 23.91 60.76L23.91 60.76Q23.53 61.08 23.41 61.42Q23.28 61.76 23.16 62.14L23.16 62.14Q23.03 62.58 22.81 62.98Q22.59 63.39 22.28 63.83L22.28 63.83L22.34 64.95Q21.78 65.08 21.78 65.11Q21.78 65.14 21.72 65.14L21.72 65.14Q21.72 65.64 21.56 66.08Q21.41 66.51 21.28 66.89L21.28 66.89Q21.16 67.14 21.09 67.33Q21.03 67.51 21.03 67.70L21.03 67.70Q21.66 68.83 21.34 70.26L21.34 70.26Q21.09 71.45 20.41 72.36Q19.72 73.26 18.78 73.76L18.78 73.76Q17.78 73.89 17.31 73.70Q16.84 73.51 16.34 73.33L16.34 73.33Q16.03 73.20 15.72 73.11Q15.41 73.01 15.09 72.95L15.09 72.95L14.34 72.33Q14.16 71.95 13.91 71.61Q13.66 71.26 13.41 70.89L13.41 70.89Q13.09 70.45 12.78 70.01Q12.47 69.58 12.22 69.01L12.22 69.01Q11.78 66.83 12.06 65.36Q12.34 63.89 12.84 62.45L12.84 62.45Q12.97 61.95 13.09 61.51Q13.22 61.08 13.34 60.58ZM48.34 71.14L48.34 71.14Q48.16 71.20 48.09 71.01Q48.03 70.83 48.06 70.64Q48.09 70.45 48.25 70.33Q48.41 70.20 48.66 70.33L48.66 70.33Q47.84 69.33 47.63 68.51Q47.41 67.70 46.78 66.51L46.78 66.51Q46.97 66.33 47.03 65.98Q47.09 65.64 47.19 65.33Q47.28 65.01 47.44 64.86Q47.59 64.70 47.84 64.95L47.84 64.95Q47.72 64.26 47.84 63.83Q47.97 63.39 48.13 63.01Q48.28 62.64 48.34 62.26Q48.41 61.89 48.16 61.39L48.16 61.39Q49.34 59.76 49.72 57.86Q50.09 55.95 50.16 54.39L50.16 54.39Q50.72 53.83 51.13 52.89Q51.53 51.95 51.72 50.95Q51.91 49.95 51.91 48.98Q51.91 48.01 51.66 47.45L51.66 47.45Q51.72 47.20 51.94 47.17Q52.16 47.14 52.47 47.20L52.47 47.20Q52.91 44.70 53.06 41.64Q53.22 38.58 53.69 35.73Q54.16 32.89 55.22 30.73Q56.28 28.58 58.59 27.95L58.59 27.95Q59.03 29.51 59.75 30.70Q60.47 31.89 61.31 33.01Q62.16 34.14 63.03 35.26Q63.91 36.39 64.66 37.76L64.66 37.76Q64.59 39.20 64.38 41.08Q64.16 42.95 63.81 44.89Q63.47 46.83 63.13 48.64Q62.78 50.45 62.47 51.70L62.47 51.70Q62.53 52.01 62.91 52.11Q63.28 52.20 63.03 52.83L63.03 52.83Q64.84 52.39 66.81 51.98Q68.78 51.58 70.69 51.17Q72.59 50.76 74.44 50.20Q76.28 49.64 77.91 48.83L77.91 48.83Q78.28 45.83 78.84 42.89Q79.41 39.95 78.97 36.95L78.97 36.95Q79.34 36.64 79.59 36.20Q79.84 35.76 80.34 35.64L80.34 35.64Q79.97 34.20 80.03 32.61Q80.09 31.01 80.56 29.64Q81.03 28.26 81.97 27.23Q82.91 26.20 84.28 25.89L84.28 25.89Q85.09 27.08 85.72 28.45Q86.34 29.83 86.97 31.23Q87.59 32.64 88.31 33.89Q89.03 35.14 90.16 36.01L90.16 36.01Q90.34 38.20 90.47 40.48Q90.59 42.76 90.66 45.20L90.66 45.20Q90.09 48.01 89.38 50.67Q88.66 53.33 88.34 56.33L88.34 56.33Q87.84 56.89 87.53 57.67Q87.22 58.45 86.94 59.23Q86.66 60.01 86.28 60.76Q85.91 61.51 85.34 62.01L85.34 62.01Q85.59 62.89 85.44 63.67Q85.28 64.45 85.84 65.51L85.84 65.51Q85.97 67.45 85.38 68.73Q84.78 70.01 83.75 70.92Q82.72 71.83 81.38 72.36Q80.03 72.89 78.72 73.33L78.72 73.33Q78.09 72.95 77.56 72.55Q77.03 72.14 76.28 71.95L76.28 71.95L76.59 71.39Q75.34 70.14 74.44 68.73Q73.53 67.33 73.59 65.51L73.59 65.51Q73.59 65.45 73.72 64.67Q73.84 63.89 74 63.01Q74.16 62.14 74.31 61.36Q74.47 60.58 74.47 60.51L74.47 60.51Q72.72 60.70 70.84 61.33Q68.97 61.95 67.19 62.73Q65.41 63.51 63.88 64.36Q62.34 65.20 61.41 65.76L61.41 65.76Q61.41 65.95 61.09 66.83Q60.78 67.70 60.34 68.67Q59.91 69.64 59.38 70.39Q58.84 71.14 58.28 71.08L58.28 71.08Q58.41 71.39 58.53 71.55Q58.66 71.70 58.53 72.14L58.53 72.14Q57.47 72.45 56.63 72.95Q55.78 73.45 54.91 73.80Q54.03 74.14 53 74.11Q51.97 74.08 50.53 73.33L50.53 73.33Q50.53 72.89 50.16 72.55Q49.78 72.20 49.38 71.95Q48.97 71.70 48.66 71.51Q48.34 71.33 48.34 71.14Z" fill="#555555"></path></svg>